<svg xmlns="http://www.w3.org/2000/svg" xmlns:xlink="http://www.w3.org/1999/xlink" xml:lang="en" height="234.04000000000002pt" width="316.18399999999997pt" viewBox="-174.784 -166.79999999999998 316.18399999999997 234.04000000000002"><path d="M 0.0,-0.0 L 136.8,-0 L 136.8,-93.6 L 0,-93.6 L 0,-0" style="stroke:#e6edf3;fill:none;stroke-width:1.6;stroke-dasharray:-;stroke-linecap:round;stroke-linejoin:round;" /><path d="M 0.0,-46.800000000000004 L -18,-46.8" style="stroke:#e6edf3;fill:none;stroke-width:1.6;stroke-dasharray:-;stroke-linecap:round;stroke-linejoin:round;" /><path d="M 68.39999999999999,-93.60000000000001 L 68.4,-111.6" style="stroke:#e6edf3;fill:none;stroke-width:1.6;stroke-dasharray:-;stroke-linecap:round;stroke-linejoin:round;" /><path d="M 68.39999999999999,-0.0 L 68.4,18" style="stroke:#e6edf3;fill:none;stroke-width:1.6;stroke-dasharray:-;stroke-linecap:round;stroke-linejoin:round;" /><path d="M -18.0,-46.800000000000004 L -43.2,-46.8 L -68.4,-46.8" style="stroke:#e6edf3;fill:none;stroke-width:1.6;stroke-dasharray:-;stroke-linecap:round;stroke-linejoin:round;" /><path d="M -68.39999999999999,-46.80000000000001 L -68.4,-68.4 L -77.4,-68.4 L -77.4,-104.4 L -59.4,-104.4 L -59.4,-68.4 L -68.4,-68.4 M -68.4,-104.4 L -68.4,-126" style="stroke:#e6edf3;fill:none;stroke-width:1.6;stroke-dasharray:-;stroke-linecap:round;stroke-linejoin:round;" /><path d="M -68.39999999999999,-126.00000000000001 L -68.4,-140.4" style="stroke:#e6edf3;fill:none;stroke-width:1.6;stroke-dasharray:-;stroke-linecap:round;stroke-linejoin:round;" /><path d="M -68.39999999999999,-140.4 L -75.15,-140.4" style="stroke:#e6edf3;fill:none;stroke-width:1.6;stroke-dasharray:-;stroke-linecap:round;stroke-linejoin:round;" /><path d="M -68.39999999999999,-140.4 L -61.65,-140.4" style="stroke:#e6edf3;fill:none;stroke-width:1.6;stroke-dasharray:-;stroke-linecap:round;stroke-linejoin:round;" /><path d="M -68.39999999999999,-46.80000000000001 L -97.2,-46.8 L -126,-46.8" style="stroke:#e6edf3;fill:none;stroke-width:1.6;stroke-dasharray:-;stroke-linecap:round;stroke-linejoin:round;" /><path d="M 68.39999999999999,-111.60000000000001 L 68.4,-122.4 L 68.4,-133.2" style="stroke:#e6edf3;fill:none;stroke-width:1.6;stroke-dasharray:-;stroke-linecap:round;stroke-linejoin:round;" /><path d="M 68.39999999999999,-133.20000000000002 L 68.4,-147.6" style="stroke:#e6edf3;fill:none;stroke-width:1.6;stroke-dasharray:-;stroke-linecap:round;stroke-linejoin:round;" /><path d="M 68.39999999999999,-147.60000000000002 L 61.65,-147.6" style="stroke:#e6edf3;fill:none;stroke-width:1.6;stroke-dasharray:-;stroke-linecap:round;stroke-linejoin:round;" /><path d="M 68.39999999999999,-147.60000000000002 L 75.15,-147.6" style="stroke:#e6edf3;fill:none;stroke-width:1.6;stroke-dasharray:-;stroke-linecap:round;stroke-linejoin:round;" /><path d="M 68.39999999999999,18.0 L 68.4,28.8 L 68.4,39.6" style="stroke:#e6edf3;fill:none;stroke-width:1.6;stroke-dasharray:-;stroke-linecap:round;stroke-linejoin:round;" /><path d="M 68.39999999999999,39.6 L 68.4,54 L 59.4,54 L 77.4,54 M 62.1,58.32 L 74.7,58.32 M 66.6,62.64 L 70.2,62.64" style="stroke:#e6edf3;fill:none;stroke-width:1.6;stroke-dasharray:-;stroke-linecap:round;stroke-linejoin:round;" /><text x="5.3999999999999995" y="-60.800000000000004" dominant-baseline="central" fill="#e6edf3" font-size="14" font-family="sans" text-anchor="start"><tspan x="5.3999999999999995" dy="14">DQ</tspan></text><text x="68.39999999999999" y="-102.2" dominant-baseline="hanging" fill="#e6edf3" font-size="14" font-family="sans" text-anchor="middle"><tspan x="68.39999999999999" dy="14">VDD</tspan></text><text x="68.39999999999999" y="-19.4" dominant-baseline="ideographic" fill="#e6edf3" font-size="14" font-family="sans" text-anchor="middle"><tspan x="68.39999999999999" dy="14">GND</tspan></text><text x="72.0" y="-61.400000000000006" dominant-baseline="central" fill="#e6edf3" font-size="11" font-family="sans" text-anchor="middle"><tspan x="72.0" dy="11">DS18B20</tspan></text><text x="-81.0" y="-102.9" dominant-baseline="central" fill="#e6edf3" font-size="11" font-family="sans" text-anchor="end"><tspan x="-81.0" dy="11">R1</tspan><tspan x="-81.0" dy="11">4,7 kΩ</tspan></text><text x="-68.39999999999999" y="-155.0" dominant-baseline="ideographic" fill="#e6edf3" font-size="11" font-family="sans" text-anchor="middle"><tspan x="-68.39999999999999" dy="11">3V3</tspan></text><text x="68.39999999999999" y="-162.20000000000002" dominant-baseline="ideographic" fill="#e6edf3" font-size="11" font-family="sans" text-anchor="middle"><tspan x="68.39999999999999" dy="11">3V3</tspan></text><circle cx="-68.4" cy="-46.8" r="2.7" style="stroke:#e6edf3;fill:#e6edf3;stroke-width:1.6;stroke-dasharray:-;" /><circle cx="-126" cy="-46.8" r="2.7" style="stroke:#e6edf3;fill:white;stroke-width:1.6;stroke-dasharray:-;" /><text x="-132.29999999999998" y="-57.80000000000002" dominant-baseline="central" fill="#e6edf3" font-size="11" font-family="sans" text-anchor="end"><tspan x="-132.29999999999998" dy="11">GPIO 4</tspan></text></svg>